# WaveFront *.obj file (generated by Autodesk ATF)

mtllib screen169.mtl

g Body3

v 41.034579 967.599813 560.998929
v 41.265797 970.316918 560.864124
v 41.500935 973.072309 560.458211
v 41.735626 975.814981 559.778941
v 41.965502 978.493931 558.824064
v 42.186392 981.060912 557.598004
v 42.394974 983.478701 556.131875
v 42.588161 985.712827 554.463465
v 42.762864 987.728821 552.630561
v 42.921426 989.554856 550.607013
v 43.066011 991.216992 548.364552
v 43.193261 992.677592 545.937785
v 43.299818 993.899016 543.361319
v 43.382893 994.850276 540.672525
v 43.442037 995.526969 537.919830
v 43.477409 995.931340 535.154425
v 43.489165 996.065631 532.427500
v 43.489165 996.065631 -532.427500
v 43.477409 995.931340 -535.154425
v 43.442037 995.526969 -537.919830
v 43.382893 994.850276 -540.672525
v 43.299818 993.899016 -543.361319
v 43.193261 992.677592 -545.937785
v 43.066011 991.216992 -548.364552
v 42.921426 989.554856 -550.607013
v 42.762864 987.728821 -552.630561
v 42.588161 985.712827 -554.463465
v 42.394974 983.478701 -556.131875
v 42.186392 981.060912 -557.598004
v 41.965502 978.493931 -558.824064
v 41.735626 975.814981 -559.778941
v 41.500935 973.072309 -560.458211
v 41.265797 970.316918 -560.864124
v 41.034579 967.599813 -560.998929
v 32.854321 865.954097 -560.998929
v 25.581339 764.239438 -560.998929
v 19.216213 662.463934 -560.998929
v 13.759449 560.635687 -560.998929
v 9.211482 458.762804 -560.998929
v 5.572674 356.853398 -560.998929
v 2.843314 254.915580 -560.998929
v 1.023620 152.957466 -560.998929
v 0.113737 50.987175 -560.998929
v 0.113737 -50.987175 -560.998929
v 1.023620 -152.957466 -560.998929
v 2.843314 -254.915580 -560.998929
v 5.572674 -356.853398 -560.998929
v 9.211482 -458.762804 -560.998929
v 13.759449 -560.635687 -560.998929
v 19.216213 -662.463934 -560.998929
v 25.581339 -764.239438 -560.998929
v 32.854321 -865.954097 -560.998929
v 41.034579 -967.599813 -560.998929
v 41.265797 -970.316918 -560.864124
v 41.500935 -973.072309 -560.458211
v 41.735626 -975.814981 -559.778941
v 41.965502 -978.493931 -558.824064
v 42.186392 -981.060912 -557.598004
v 42.394974 -983.478701 -556.131875
v 42.588161 -985.712827 -554.463465
v 42.762864 -987.728821 -552.630561
v 42.921426 -989.554856 -550.607013
v 43.066011 -991.216992 -548.364552
v 43.193261 -992.677592 -545.937785
v 43.299818 -993.899016 -543.361319
v 43.382893 -994.850276 -540.672525
v 43.442037 -995.526969 -537.919830
v 43.477409 -995.931340 -535.154425
v 43.489165 -996.065631 -532.427500
v 43.489165 -996.065631 532.427500
v 43.477409 -995.931340 535.154425
v 43.442037 -995.526969 537.919830
v 43.382893 -994.850276 540.672525
v 43.299818 -993.899016 543.361319
v 43.193261 -992.677592 545.937785
v 43.066011 -991.216992 548.364552
v 42.921426 -989.554856 550.607013
v 42.762864 -987.728821 552.630561
v 42.588161 -985.712827 554.463465
v 42.394974 -983.478701 556.131875
v 42.186392 -981.060912 557.598004
v 41.965502 -978.493931 558.824064
v 41.735626 -975.814981 559.778941
v 41.500935 -973.072309 560.458211
v 41.265797 -970.316918 560.864124
v 41.034579 -967.599813 560.998929
v 32.854321 -865.954097 560.998929
v 25.581339 -764.239438 560.998929
v 19.216213 -662.463934 560.998929
v 13.759449 -560.635687 560.998929
v 9.211482 -458.762804 560.998929
v 5.572674 -356.853398 560.998929
v 2.843314 -254.915580 560.998929
v 1.023620 -152.957466 560.998929
v 0.113737 -50.987175 560.998929
v 0.113737 50.987175 560.998929
v 1.023620 152.957466 560.998929
v 2.843314 254.915580 560.998929
v 5.572674 356.853398 560.998929
v 9.211482 458.762804 560.998929
v 13.759449 560.635687 560.998929
v 19.216213 662.463934 560.998929
v 25.581339 764.239438 560.998929
v 32.854321 865.954097 560.998929
vt -56.086412 2.584453 0.000000
vt 56.086412 2.584453 0.000000
vt -56.099893 2.857146 0.000000
vt 56.099893 2.857146 0.000000
vt 56.099893 13.054615 0.000000
vt 56.045821 2.307913 0.000000
vt -56.045821 2.307913 0.000000
vt 55.977894 2.032643 0.000000
vt -55.977894 2.032643 0.000000
vt 55.882406 1.763764 0.000000
vt -55.882406 1.763764 0.000000
vt 55.759800 1.506117 0.000000
vt -55.759800 1.506117 0.000000
vt 55.613187 1.263440 0.000000
vt -55.613187 1.263440 0.000000
vt 55.446346 1.039194 0.000000
vt -55.446346 1.039194 0.000000
vt 55.263056 0.836839 0.000000
vt -55.263056 0.836839 0.000000
vt 55.060701 0.653548 0.000000
vt -55.060701 0.653548 0.000000
vt 54.836455 0.486707 0.000000
vt -54.836455 0.486707 0.000000
vt 54.593779 0.340094 0.000000
vt -54.593779 0.340094 0.000000
vt 54.336132 0.217487 0.000000
vt -54.336132 0.217487 0.000000
vt 54.067253 0.121999 0.000000
vt -54.067253 0.121999 0.000000
vt 53.791983 0.054072 0.000000
vt -53.791983 0.054072 0.000000
vt 53.515442 0.013481 0.000000
vt -53.515442 0.013481 0.000000
vt 53.242750 0.000000 0.000000
vt -53.242750 0.000000 0.000000
vt -56.099893 13.054615 0.000000
vt 56.099893 23.252084 0.000000
vt -56.099893 23.252084 0.000000
vt 56.099893 33.449552 0.000000
vt -56.099893 33.449552 0.000000
vt 56.099893 43.647021 0.000000
vt -56.099893 43.647021 0.000000
vt 56.099893 53.844490 0.000000
vt -56.099893 53.844490 0.000000
vt 56.099893 64.041959 0.000000
vt -56.099893 64.041959 0.000000
vt 56.099893 74.239428 0.000000
vt -56.099893 74.239428 0.000000
vt 56.099893 84.436897 0.000000
vt -56.099893 84.436897 0.000000
vt 56.099893 94.634366 0.000000
vt -56.099893 94.634366 0.000000
vt 56.099893 104.831835 0.000000
vt -56.099893 104.831835 0.000000
vt 56.099893 115.029303 0.000000
vt -56.099893 115.029303 0.000000
vt 56.099893 125.226772 0.000000
vt -56.099893 125.226772 0.000000
vt 56.099893 135.424241 0.000000
vt -56.099893 135.424241 0.000000
vt 56.099893 145.621710 0.000000
vt -56.099893 145.621710 0.000000
vt 56.099893 155.819179 0.000000
vt -56.099893 155.819179 0.000000
vt 56.099893 166.016648 0.000000
vt -56.099893 166.016648 0.000000
vt 56.099893 176.214117 0.000000
vt -56.099893 176.214117 0.000000
vt 56.099893 186.411585 0.000000
vt -56.099893 186.411585 0.000000
vt 56.099893 196.609054 0.000000
vt -56.099893 196.609054 0.000000
vt -56.086412 196.881747 0.000000
vt 56.086412 196.881747 0.000000
vt -56.045821 197.158287 0.000000
vt 56.045821 197.158287 0.000000
vt -55.977894 197.433557 0.000000
vt 55.977894 197.433557 0.000000
vt -55.882406 197.702436 0.000000
vt 55.882406 197.702436 0.000000
vt -55.759800 197.960083 0.000000
vt 55.759800 197.960083 0.000000
vt -55.613187 198.202760 0.000000
vt 55.613187 198.202760 0.000000
vt -55.446346 198.427006 0.000000
vt 55.446346 198.427006 0.000000
vt -55.263056 198.629361 0.000000
vt 55.263056 198.629361 0.000000
vt -55.060701 198.812652 0.000000
vt 55.060701 198.812652 0.000000
vt -54.836455 198.979493 0.000000
vt 54.836455 198.979493 0.000000
vt -54.593779 199.126106 0.000000
vt 54.593779 199.126106 0.000000
vt -54.336132 199.248713 0.000000
vt 54.336132 199.248713 0.000000
vt -54.067253 199.344201 0.000000
vt 54.067253 199.344201 0.000000
vt -53.791983 199.412128 0.000000
vt 53.791983 199.412128 0.000000
vt -53.515442 199.452720 0.000000
vt 53.515442 199.452720 0.000000
vt -53.242750 199.466200 0.000000
vt 53.242750 199.466200 0.000000
vn -0.099639 0.008490 -0.000000
vn -0.099639 0.008490 -0.000000
vn -0.099641 0.008466 -0.000000
vn -0.099641 0.008466 -0.000000
vn -0.099713 0.007577 -0.000000
vn -0.099637 0.008514 -0.000000
vn -0.099637 0.008514 -0.000000
vn -0.099635 0.008538 -0.000000
vn -0.099635 0.008538 -0.000000
vn -0.099633 0.008562 -0.000000
vn -0.099633 0.008562 -0.000000
vn -0.099631 0.008584 -0.000000
vn -0.099631 0.008584 -0.000000
vn -0.099629 0.008605 -0.000000
vn -0.099629 0.008605 -0.000000
vn -0.099627 0.008625 -0.000000
vn -0.099627 0.008625 -0.000000
vn -0.099626 0.008643 -0.000000
vn -0.099626 0.008643 -0.000000
vn -0.099624 0.008659 -0.000000
vn -0.099624 0.008659 -0.000000
vn -0.099623 0.008673 -0.000000
vn -0.099623 0.008673 -0.000000
vn -0.099622 0.008686 -0.000000
vn -0.099622 0.008686 -0.000000
vn -0.099621 0.008697 -0.000000
vn -0.099621 0.008697 -0.000000
vn -0.099620 0.008705 -0.000000
vn -0.099620 0.008705 -0.000000
vn -0.099620 0.008711 -0.000000
vn -0.099620 0.008711 -0.000000
vn -0.099620 0.008714 -0.000000
vn -0.099620 0.008714 -0.000000
vn -0.099619 0.008716 -0.000000
vn -0.099619 0.008716 -0.000000
vn -0.099713 0.007577 -0.000000
vn -0.099776 0.006687 -0.000000
vn -0.099776 0.006687 -0.000000
vn -0.099832 0.005797 -0.000000
vn -0.099832 0.005797 -0.000000
vn -0.099880 0.004906 -0.000000
vn -0.099880 0.004906 -0.000000
vn -0.099919 0.004014 -0.000000
vn -0.099919 0.004014 -0.000000
vn -0.099951 0.003122 -0.000000
vn -0.099951 0.003122 -0.000000
vn -0.099975 0.002231 -0.000000
vn -0.099975 0.002231 -0.000000
vn -0.099991 0.001338 -0.000000
vn -0.099991 0.001338 -0.000000
vn -0.099999 0.000446 -0.000000
vn -0.099999 0.000446 -0.000000
vn -0.099999 -0.000446 0.000000
vn -0.099999 -0.000446 0.000000
vn -0.099991 -0.001338 0.000000
vn -0.099991 -0.001338 0.000000
vn -0.099975 -0.002231 0.000000
vn -0.099975 -0.002231 0.000000
vn -0.099951 -0.003122 0.000000
vn -0.099951 -0.003122 0.000000
vn -0.099919 -0.004014 0.000000
vn -0.099919 -0.004014 0.000000
vn -0.099880 -0.004906 0.000000
vn -0.099880 -0.004906 0.000000
vn -0.099832 -0.005797 0.000000
vn -0.099832 -0.005797 0.000000
vn -0.099776 -0.006687 0.000000
vn -0.099776 -0.006687 0.000000
vn -0.099713 -0.007577 0.000000
vn -0.099713 -0.007577 0.000000
vn -0.099641 -0.008466 0.000000
vn -0.099641 -0.008466 0.000000
vn -0.099639 -0.008490 0.000000
vn -0.099639 -0.008490 0.000000
vn -0.099637 -0.008514 0.000000
vn -0.099637 -0.008514 0.000000
vn -0.099635 -0.008538 0.000000
vn -0.099635 -0.008538 0.000000
vn -0.099633 -0.008562 0.000000
vn -0.099633 -0.008562 0.000000
vn -0.099631 -0.008584 0.000000
vn -0.099631 -0.008584 0.000000
vn -0.099629 -0.008605 0.000000
vn -0.099629 -0.008605 0.000000
vn -0.099627 -0.008625 0.000000
vn -0.099627 -0.008625 0.000000
vn -0.099626 -0.008643 0.000000
vn -0.099626 -0.008643 0.000000
vn -0.099624 -0.008659 0.000000
vn -0.099624 -0.008659 0.000000
vn -0.099623 -0.008673 0.000000
vn -0.099623 -0.008673 0.000000
vn -0.099622 -0.008686 0.000000
vn -0.099622 -0.008686 0.000000
vn -0.099621 -0.008697 0.000000
vn -0.099621 -0.008697 0.000000
vn -0.099620 -0.008705 0.000000
vn -0.099620 -0.008705 0.000000
vn -0.099620 -0.008711 0.000000
vn -0.099620 -0.008711 0.000000
vn -0.099620 -0.008714 0.000000
vn -0.099620 -0.008714 0.000000
vn -0.099619 -0.008716 0.000000
vn -0.099619 -0.008716 0.000000
usemtl Steel_-_Satin
f 2/1/1 33/2/2 1/3/3
f 1/3/3 33/2/2 34/4/4
f 1/3/3 34/4/4 35/5/5
f 33/2/2 2/1/1 32/6/6
f 32/6/6 2/1/1 3/7/7
f 32/6/6 3/7/7 31/8/8
f 31/8/8 3/7/7 4/9/9
f 31/8/8 4/9/9 30/10/10
f 30/10/10 4/9/9 5/11/11
f 30/10/10 5/11/11 29/12/12
f 29/12/12 5/11/11 6/13/13
f 29/12/12 6/13/13 28/14/14
f 28/14/14 6/13/13 7/15/15
f 28/14/14 7/15/15 27/16/16
f 27/16/16 7/15/15 8/17/17
f 27/16/16 8/17/17 26/18/18
f 26/18/18 8/17/17 9/19/19
f 26/18/18 9/19/19 25/20/20
f 25/20/20 9/19/19 10/21/21
f 25/20/20 10/21/21 24/22/22
f 24/22/22 10/21/21 11/23/23
f 24/22/22 11/23/23 23/24/24
f 23/24/24 11/23/23 12/25/25
f 23/24/24 12/25/25 22/26/26
f 22/26/26 12/25/25 13/27/27
f 22/26/26 13/27/27 21/28/28
f 21/28/28 13/27/27 14/29/29
f 21/28/28 14/29/29 20/30/30
f 20/30/30 14/29/29 15/31/31
f 20/30/30 15/31/31 19/32/32
f 19/32/32 15/31/31 16/33/33
f 19/32/32 16/33/33 18/34/34
f 18/34/34 16/33/33 17/35/35
f 1/3/3 35/5/5 104/36/36
f 104/36/36 35/5/5 36/37/37
f 104/36/36 36/37/37 103/38/38
f 103/38/38 36/37/37 37/39/39
f 103/38/38 37/39/39 102/40/40
f 102/40/40 37/39/39 38/41/41
f 102/40/40 38/41/41 101/42/42
f 101/42/42 38/41/41 39/43/43
f 101/42/42 39/43/43 100/44/44
f 100/44/44 39/43/43 40/45/45
f 100/44/44 40/45/45 99/46/46
f 99/46/46 40/45/45 41/47/47
f 99/46/46 41/47/47 98/48/48
f 98/48/48 41/47/47 42/49/49
f 98/48/48 42/49/49 97/50/50
f 97/50/50 42/49/49 43/51/51
f 97/50/50 43/51/51 96/52/52
f 96/52/52 43/51/51 44/53/53
f 96/52/52 44/53/53 95/54/54
f 95/54/54 44/53/53 45/55/55
f 95/54/54 45/55/55 94/56/56
f 94/56/56 45/55/55 46/57/57
f 94/56/56 46/57/57 93/58/58
f 93/58/58 46/57/57 47/59/59
f 93/58/58 47/59/59 92/60/60
f 92/60/60 47/59/59 48/61/61
f 92/60/60 48/61/61 91/62/62
f 91/62/62 48/61/61 49/63/63
f 91/62/62 49/63/63 90/64/64
f 90/64/64 49/63/63 50/65/65
f 90/64/64 50/65/65 89/66/66
f 89/66/66 50/65/65 51/67/67
f 89/66/66 51/67/67 88/68/68
f 88/68/68 51/67/67 52/69/69
f 88/68/68 52/69/69 87/70/70
f 87/70/70 52/69/69 53/71/71
f 87/70/70 53/71/71 86/72/72
f 86/72/72 53/71/71 85/73/73
f 85/73/73 53/71/71 54/74/74
f 85/73/73 54/74/74 84/75/75
f 84/75/75 54/74/74 55/76/76
f 84/75/75 55/76/76 83/77/77
f 83/77/77 55/76/76 56/78/78
f 83/77/77 56/78/78 82/79/79
f 82/79/79 56/78/78 57/80/80
f 82/79/79 57/80/80 81/81/81
f 81/81/81 57/80/80 58/82/82
f 81/81/81 58/82/82 80/83/83
f 80/83/83 58/82/82 59/84/84
f 80/83/83 59/84/84 79/85/85
f 79/85/85 59/84/84 60/86/86
f 79/85/85 60/86/86 78/87/87
f 78/87/87 60/86/86 61/88/88
f 78/87/87 61/88/88 77/89/89
f 77/89/89 61/88/88 62/90/90
f 77/89/89 62/90/90 76/91/91
f 76/91/91 62/90/90 63/92/92
f 76/91/91 63/92/92 75/93/93
f 75/93/93 63/92/92 64/94/94
f 75/93/93 64/94/94 74/95/95
f 74/95/95 64/94/94 65/96/96
f 74/95/95 65/96/96 73/97/97
f 73/97/97 65/96/96 66/98/98
f 73/97/97 66/98/98 72/99/99
f 72/99/99 66/98/98 67/100/100
f 72/99/99 67/100/100 71/101/101
f 71/101/101 67/100/100 68/102/102
f 71/101/101 68/102/102 70/103/103
f 70/103/103 68/102/102 69/104/104
# 104 vertices
# 104 texture params
# 104 normals
# 102 facets

# 1 groups
