{
  "asset": {
    "generator": "Khronos glTF Blender I/O v1.6.16",
    "version": "2.0"
  },
  "scene": 0,
  "scenes": [
    {
      "name": "Scene",
      "nodes": [
        0
      ]
    }
  ],
  "nodes": [
    {
      "mesh": 0,
      "name": "sphere_gltf"
    }
  ],
  "materials": [
    {
      "doubleSided": true,
      "name": "tiled_floor_001",
      "normalTexture": {
        "index": 0
      },
      "pbrMetallicRoughness": {
        "baseColorTexture": {
          "index": 1
        },
        "metallicFactor": 0,
        "metallicRoughnessTexture": {
          "index": 2
        }
      }
    }
  ],
  "meshes": [
    {
      "name": "Sphere.001",
      "primitives": [
        {
          "attributes": {
            "POSITION": 0,
            "NORMAL": 1,
            "TEXCOORD_0": 2
          },
          "indices": 3,
          "material": 0
        }
      ]
    }
  ],
  "textures": [
    {
      "sampler": 0,
      "source": 0
    },
    {
      "sampler": 0,
      "source": 1
    },
    {
      "sampler": 0,
      "source": 2
    }
  ],
  "images": [
    {
      "mimeType": "image/jpeg",
      "name": "tiled_floor_001_nor_gl_4k",
      "uri": "textures/tiled_floor_001_nor_gl_2k.jpg"
    },
    {
      "mimeType": "image/jpeg",
      "name": "tiled_floor_001_diffuse_4k",
      "uri": "textures/tiled_floor_001_diffuse_2k.jpg"
    },
    {
      "mimeType": "image/jpeg",
      "name": "tiled_floor_001_rough_4k",
      "uri": "textures/tiled_floor_001_rough_2k.jpg"
    }
  ],
  "accessors": [
    {
      "bufferView": 0,
      "componentType": 5126,
      "count": 53917,
      "max": [
        0.7503329515457153,
        0.752113938331604,
        0.7515891194343567
      ],
      "min": [
        -0.7503709197044373,
        -0.7516794204711914,
        -0.7515886425971985
      ],
      "type": "VEC3"
    },
    {
      "bufferView": 1,
      "componentType": 5126,
      "count": 53917,
      "type": "VEC3"
    },
    {
      "bufferView": 2,
      "componentType": 5126,
      "count": 53917,
      "type": "VEC2"
    },
    {
      "bufferView": 3,
      "componentType": 5123,
      "count": 322170,
      "type": "SCALAR"
    }
  ],
  "bufferViews": [
    {
      "buffer": 0,
      "byteLength": 647004,
      "byteOffset": 0
    },
    {
      "buffer": 0,
      "byteLength": 647004,
      "byteOffset": 647004
    },
    {
      "buffer": 0,
      "byteLength": 431336,
      "byteOffset": 1294008
    },
    {
      "buffer": 0,
      "byteLength": 644340,
      "byteOffset": 1725344
    }
  ],
  "samplers": [
    {
      "magFilter": 9729,
      "minFilter": 9987
    }
  ],
  "buffers": [
    {
      "byteLength": 2369684,
      "uri": "tiled_floor_001.bin"
    }
  ]
}